<?xml version="1.0" encoding="utf-8"?>
<!-- Generator: Adobe Illustrator 24.3.0, SVG Export Plug-In . SVG Version: 6.00 Build 0)  -->
<svg version="1.1" id="Layer_4" xmlns="http://www.w3.org/2000/svg" xmlns:xlink="http://www.w3.org/1999/xlink" x="0px" y="0px"
	 viewBox="0 0 253.3 202.6" style="enable-background:new 0 0 253.3 202.6;" xml:space="preserve">
<style type="text/css">
	.st0{fill:#93803D;}
</style>
<g>
	<polygon class="st0" points="151.7,40.3 140.7,25 151,26.2 151.2,24.8 139.4,22.1 142.4,13.5 141,13 137.1,20.3 127.1,8.1 
		125.9,8.9 133.5,20.2 111.6,12.6 111.1,13.9 131.1,22.2 101.9,24.8 102,26.2 130.6,25 101.6,40.1 102.3,41.3 131.7,27.5 
		110.8,52.5 111.9,53.4 134,29.2 125.8,57.4 127.2,57.8 136.9,29.5 141,53 142.4,52.9 139.6,28.2 150.5,41.1 	"/>
	<path d="M60.7,193.7h1.7v0.7h-6.6l-6.2-10.9h-0.7v10.2h2.2v0.7h-9.8v-0.7h2.9v-21.9h-2.9v-0.7h10.2c7.4,0,9.9,2.3,9.9,5.9
		c0,3.2-2.2,5.5-7.1,6.2L60.7,193.7z M49.6,182.9c5,0,6.8-2,6.8-5.7c0-3.2-1.4-5.4-5.1-5.4h-2.4v11.1H49.6z"/>
	<path d="M91.9,193.7H94v0.7H82.9v-0.7h4l-2.7-7.1h-8.7l-2,5.4l3.7,1.9v0.5h-7.6v-0.5l2.9-2l8-21h2.8L91.9,193.7z M75.8,185.8h8.1
		l-4-10.8L75.8,185.8z"/>
	<path d="M108.8,171.8v21.9h2.7v0.7h-10.4v-0.7h2.9v-21.9h-2.9v-0.7h10.5v0.7H108.8z M122.6,193.7h1.7v0.7h-6.9l-7.6-11.3l8.9-9.8
		l-3.3-1.8v-0.6h8.5v0.6l-4.2,2l-6.1,6.6L122.6,193.7z"/>
	<path d="M151.5,187.6c0.1,2.1,0,4.9-0.3,6.8h-19.2v-0.7h2.9v-21.9h-2.9v-0.7h18.3c0.2,1.7,0.3,4.4,0.2,5.9h-0.6
		c-0.6-1-1.4-2.2-1.9-3.1c-1-1.6-1.3-2-3.1-2h-5.3v10.6h5.3l2.1-3.6h0.6v7.8h-0.6l-2.1-3.6h-5.3v10.7h6.2c1.5,0,2-0.6,3-2.4
		c0.6-1.1,1.4-2.5,2-3.7H151.5z"/>
	<path d="M179.6,187.6c0.1,2.1,0,4.9-0.3,6.8h-19.2v-0.7h2.9v-21.9h-2.9v-0.7h18.3c0.2,1.7,0.3,4.4,0.2,5.9H178
		c-0.6-1-1.4-2.2-1.9-3.1c-1-1.6-1.3-2-3.1-2h-5.3v10.6h5.3l2.1-3.6h0.6v7.8H175l-2.1-3.6h-5.3v10.7h6.2c1.5,0,2-0.6,3-2.4
		c0.6-1.1,1.4-2.5,2-3.7H179.6z"/>
	<polygon points="212.4,171.7 209.1,173.9 209.1,194.4 207.8,194.4 192,172.8 192,191.6 196.1,193.9 196.1,194.4 188,194.4 
		188,193.9 191.1,191.6 191.1,172.1 187.9,171.7 187.9,171.1 196.6,171.1 208.2,187 208.2,173.9 204.5,171.7 204.5,171.1 
		212.4,171.1 	"/>
	<polygon points="66.7,130.1 60.6,136.8 60.5,137.3 66.5,142.5 60.6,149 60.5,149.5 67.4,155.7 74,149 67.6,143.3 74,136.8 	"/>
	<polygon points="34.1,121.6 25.9,115.1 20.5,122.3 20.5,122.8 28.2,128.8 	"/>
	<path d="M244.8,101.2h-0.5c-3.9,3.3-7.5,7.5-9.6,11.3c7,5.8,12.2,16,12.2,17.9c0,5.4-17.4,16.9-31.7,19.9v0.4c3.8,1.3,8.5,5,14.4,5
		c10,0,18.4-10.4,18.4-28.6C247.9,118.3,246.5,105,244.8,101.2"/>
	<path d="M201.3,102.5c-8.2-0.2-16.5,0.5-24.7,0.9c-11.3,0.7-22.8,1.4-34.1,1.6c-10.1,0.2-22.1,0.3-33.2-1.6l33.8-10
		c0.8-3.4,1.7-8.4,1.6-13.4l-0.4-0.1l-16.7,7.8c-18.7,8.8-19.5,9.8-21.2,15c-0.9,3-2,7.1-2,10.1c0,3.6,19,4.9,28.4,4.9
		c12.4,0,24.9-1,37-1.8c8.5-0.5,17.1-1.2,25.6-1.3c7.6-0.1,21.5,2.5,21.5,10.4c0,3.6-1.8,6.5-4.3,8.9c-2.9-4.2-6.1-7.3-18.3-7.3
		c-3.5,0-62.4,3.2-83.1,3.2c-10.9,0-21.2,0.5-29.1-7.6c-1.7-1.8-2.5-3.9-3-6.2c0.5,0,1-0.1,1.5-0.2c3-0.5,5.1-1.3,5.5-2.4l1.2-8.9
		l-0.6-0.8c-3.1,1.7-13,2-24,2c-5.6,0-11.4-0.1-17-0.1c-2.4,3.1-4.2,7-5,10c7,5.7,10.2,14,10.2,16.3c0,6-9.6,10.6-24,10.6
		c-11.8,0-18.4-5.2-18.4-14.3c0-3.5,0.6-7.8,2.4-12.6l-0.9-0.1c-3,6.7-4.4,13.5-4.4,19.9c0,12.9,7,20.2,20.1,20.2
		c16.3,0,26.9-7.6,26.9-26.4c0-2.3-0.4-10.2-0.8-12c8.4,0,18.7,0,25.8-0.7c0.1,5.6,1.3,13.5,4.8,17.7c4.2,4.9,13.2,8.4,21.9,8.4
		c14.9,0,81.2-3.1,89.4-3.1c5.7,0,11.9,1.5,15,6.6h0.8c6.8-6.8,10.6-16.9,10.6-26.8C219.9,106.7,212.8,102.9,201.3,102.5"/>
</g>
</svg>
